<svg width="39" height="24" viewBox="0 0 39 24" fill="none" xmlns="http://www.w3.org/2000/svg">
<rect x="0.900391" y="0.5" width="37.4" height="23" rx="1.5" fill="white"/>
<path d="M30.159 9.89062H28.9141H23.1538H21.9089L21.0649 10.8401L18.343 13.9102L17.499 14.8597H16.2541H10.5993H9.35439L10.1773 13.8996L10.5676 13.446L11.3905 12.4859H10.1456H8.54204H7.64529C6.95954 12.4859 6.40039 13.0662 6.40039 13.7625V16.2312V16.4633C6.40039 17.1701 6.95954 17.7398 7.64529 17.7398H7.99344H21.0755H22.0144C22.7002 17.7398 23.6391 17.3073 24.0928 16.7903L26.2661 14.3216L30.159 9.89062Z" fill="#004E91"/>
<path d="M31.8165 7.01055C32.5022 7.01055 33.0614 7.5908 33.0614 8.2871V10.9879C33.0614 11.6948 32.5022 12.2645 31.8165 12.2645H31.1412H29.3161H28.0712L28.9046 11.315L29.3161 10.8402L30.1495 9.8907H21.8994L17.5001 14.8492H9.30273L15.1791 8.2027L15.4006 7.9495C15.8648 7.43255 16.8038 7 17.4895 7H17.7744H31.8165V7.01055Z" fill="#FFDD00"/>
<rect x="0.900391" y="0.5" width="37.4" height="23" rx="1.5" stroke="#DDDDDD"/>
</svg>
