<svg width="39" height="24" viewBox="0 0 39 24" fill="none" xmlns="http://www.w3.org/2000/svg">
<rect x="0.5" y="0.5" width="37.4" height="23" rx="1.5" fill="url(#paint0_linear_1603_32477)"/>
<path fill-rule="evenodd" clip-rule="evenodd" d="M12.7072 11.4921H19.4385C19.3784 10.0371 19.0394 8.53706 18.0112 7.57351C16.7864 6.42574 14.6412 6 12.7242 6C10.729 6 8.52254 6.46696 7.29129 7.69846C6.22954 8.75927 6 10.4661 6 11.9997C6 13.606 6.44907 15.4745 7.60087 16.5508C8.82565 17.696 10.8103 18 12.7242 18C14.5835 18 16.5975 17.6567 17.8152 16.5695C19.0294 15.4835 19.4491 13.6543 19.4491 11.9997V11.9919H12.7072V11.4921ZM19.8899 11.9922V17.7317H29.2538V17.7239C30.6239 17.6492 31.7139 16.4139 31.7139 14.897C31.7139 13.3796 30.6239 12.065 29.2538 11.9896V11.9922H19.8899ZM29.1472 6.24025C30.4827 6.24025 31.5427 7.39896 31.5427 8.86104C31.5427 10.2452 30.5692 11.3756 29.3309 11.4921H19.8899V6.23187H28.8518C28.9069 6.22513 28.9712 6.22987 29.034 6.23451C29.0732 6.2374 29.1118 6.24025 29.1472 6.24025Z" fill="#FEFEFE"/>
<rect x="0.5" y="0.5" width="37.4" height="23" rx="1.5" stroke="#DDDDDD"/>
<defs>
<linearGradient id="paint0_linear_1603_32477" x1="10.4156" y1="-3.03919" x2="2.61766" y2="23.3755" gradientUnits="userSpaceOnUse">
<stop stop-color="#222E72"/>
<stop offset="0.591647" stop-color="#40CBFF"/>
<stop offset="1" stop-color="#3CB792"/>
</linearGradient>
</defs>
</svg>
