<svg width="40" height="24" viewBox="0 0 40 24" fill="none" xmlns="http://www.w3.org/2000/svg">
<rect x="1.2998" y="0.5" width="37.4" height="23" rx="1.5" fill="white"/>
<path d="M28.5705 12.7537H26.5623C26.3389 12.7537 26.1572 12.5757 26.1572 12.3529C26.1572 12.1301 26.3389 11.934 26.5623 11.934H29.6197V10.4258H26.5623C25.4952 10.4258 24.6269 11.2957 24.6269 12.3602C24.6269 13.4247 25.4952 14.2946 26.5623 14.2946H28.5433C28.7666 14.2946 28.9484 14.4719 28.9484 14.6947C28.9484 14.9175 28.7666 15.0815 28.5433 15.0815H24.2953C23.9346 15.77 23.584 16.3602 22.8721 16.6553H28.5705C29.6197 16.6402 30.4779 15.7523 30.4779 14.6972C30.4779 13.6422 29.6197 12.7688 28.5705 12.7537Z" fill="#71706F"/>
<path d="M20.8716 10.4258C19.1695 10.4258 17.7832 11.8204 17.7832 13.534V13.5996V19.9996H19.3242V16.6553H20.8684C22.5705 16.6553 23.952 15.2421 23.952 13.5285C23.952 11.8149 22.5738 10.4258 20.8716 10.4258ZM20.8716 15.0815H19.3242V13.5285C19.3242 12.6607 20.0151 11.9547 20.8716 11.9547C21.7282 11.9547 22.425 12.6607 22.425 13.5285C22.425 14.3964 21.7282 15.0815 20.8716 15.0815Z" fill="#71706F"/>
<path d="M12.9048 16.6555C11.4478 16.6555 10.2228 15.6172 9.89131 14.2608C9.89131 14.2608 9.79554 13.8124 9.79554 13.5171C9.79554 13.2218 9.8862 12.7687 9.8862 12.7687C10.2201 11.4156 11.4435 10.4081 12.8982 10.4081C14.6091 10.4081 16.0129 11.7988 16.0129 13.5097V14.2621H11.4675C11.7359 14.7866 12.2788 15.0817 12.9048 15.0817H16.9909L16.9965 10.645C16.9965 9.98356 16.4554 9.44238 15.7939 9.44238H10.0025C9.34102 9.44238 8.7998 9.96717 8.7998 10.6286V16.4201C8.7998 17.0815 9.34102 17.6391 10.0025 17.6391H15.7939C16.3875 17.6391 16.8827 17.2129 16.9784 16.6555H12.9048Z" fill="#C8036F"/>
<path d="M12.8983 11.8809C12.2747 11.8809 11.7324 12.2626 11.4629 12.7544H14.3338C14.0643 12.2626 13.522 11.8809 12.8983 11.8809Z" fill="#C8036F"/>
<path d="M15.5215 7.55931C15.5215 6.14584 14.3468 5 12.8978 5C11.4728 5 10.3138 6.10836 10.2757 7.48944C10.2751 7.49528 10.2756 7.50095 10.2756 7.50695V8.27607C10.2756 8.36807 10.3505 8.45902 10.4448 8.45902H11.4101C11.5044 8.45902 11.5871 8.36807 11.5871 8.27607V7.55931C11.5871 6.85348 12.1749 6.27921 12.8985 6.27921C13.6221 6.27921 14.21 6.85348 14.21 7.55931V8.27607C14.21 8.36807 14.2865 8.45902 14.3808 8.45902H15.3461C15.4404 8.45902 15.5215 8.36807 15.5215 8.27607V7.55931Z" fill="#C8036F"/>
<rect x="1.2998" y="0.5" width="37.4" height="23" rx="1.5" stroke="#DDDDDD"/>
</svg>
