<svg width="39" height="24" viewBox="0 0 39 24" fill="none" xmlns="http://www.w3.org/2000/svg">
<rect x="0.700195" y="0.5" width="37.4" height="23" rx="1.5" fill="white"/>
<path d="M8.2002 7.15385C8.2002 5.96431 9.16451 5 10.354 5H28.0463C29.2359 5 30.2002 5.96431 30.2002 7.15385V16.8462C30.2002 18.0357 29.2359 19 28.0463 19H10.354C9.1645 19 8.2002 18.0357 8.2002 16.8462V7.15385Z" fill="white"/>
<path fill-rule="evenodd" clip-rule="evenodd" d="M28.0463 6.07692H10.354C9.75927 6.07692 9.27712 6.55908 9.27712 7.15385V16.8462C9.27712 17.4409 9.75927 17.9231 10.354 17.9231H28.0463C28.6411 17.9231 29.1233 17.4409 29.1233 16.8462V7.15385C29.1233 6.55908 28.6411 6.07692 28.0463 6.07692ZM10.354 5C9.16451 5 8.2002 5.96431 8.2002 7.15385V16.8462C8.2002 18.0357 9.1645 19 10.354 19H28.0463C29.2359 19 30.2002 18.0357 30.2002 16.8462V7.15385C30.2002 5.96431 29.2359 5 28.0463 5H10.354Z" fill="#0F3365"/>
<path d="M19.2002 5H26.2002C28.4093 5 30.2002 6.79086 30.2002 9V15C30.2002 17.2091 28.4093 19 26.2002 19H19.2002V5Z" fill="#0F3365"/>
<path fill-rule="evenodd" clip-rule="evenodd" d="M20.7002 16.3646H22.9914V13.179H23.017C23.45 13.8769 24.3159 14.1355 25.1178 14.1355C27.0911 14.1355 28.1476 12.6945 28.1476 10.9606C28.1476 9.54246 27.1426 8 25.3091 8C24.2652 8 23.2972 8.37152 22.8391 9.19338H22.8135V8.13503H20.7002V16.3646ZM25.7805 11.006C25.7805 11.9406 25.2584 12.582 24.3932 12.582C23.629 12.582 22.9918 11.9406 22.9918 11.0846C22.9918 10.2067 23.5525 9.55365 24.3932 9.55365C25.2839 9.55365 25.7805 10.2288 25.7805 11.006Z" fill="#FFFFFE"/>
<path fill-rule="evenodd" clip-rule="evenodd" d="M17.6964 8.13503H15.6208V9.193H15.5958C15.1119 8.47279 14.3223 8 13.3423 8C11.2801 8 10.3506 9.30558 10.3506 11.0508C10.3506 12.7852 11.4836 14.0001 13.3044 14.0001C14.2209 14.0001 14.9847 13.6857 15.5317 12.9981H15.5575V13.314C15.5575 14.4623 14.8449 15.0137 13.5207 15.0137C12.5658 15.0137 11.9802 14.8338 11.2801 14.5298L11.1653 16.1287C11.7002 16.2969 12.6041 16.5 13.6988 16.5C16.3724 16.5 17.6964 15.7228 17.6964 13.314V8.13503ZM12.7188 11.0169C12.7188 10.2178 13.1644 9.55365 14.0174 9.55365C15.0484 9.55365 15.4814 10.2848 15.4814 10.9381C15.4814 11.8391 14.8319 12.4469 14.0174 12.4469C13.33 12.4469 12.7188 11.9285 12.7188 11.0169Z" fill="#D8232A"/>
<rect x="0.700195" y="0.5" width="37.4" height="23" rx="1.5" stroke="#DDDDDD"/>
</svg>
