<svg width="39" height="24" viewBox="0 0 39 24" fill="none" xmlns="http://www.w3.org/2000/svg">
<rect x="1.09961" y="0.5" width="37.4" height="23" rx="1.5" fill="white"/>
<g clip-path="url(#clip0_1603_32481)">
<path d="M9.59961 4.33062V19.6194C9.59961 20.3512 10.1984 20.95 10.9302 20.95H20.0649C26.9708 20.95 29.9647 17.0846 29.9647 11.955C29.9647 6.85213 26.9708 3 20.0649 3H10.9302C10.1984 3 9.59961 3.59878 9.59961 4.33062Z" fill="white"/>
<path d="M15.7139 6.75198V18.0489H20.6305C25.0947 18.0489 27.0307 15.5274 27.0307 11.9613C27.0307 8.54832 25.0947 5.90039 20.6305 5.90039H16.5655C16.0931 5.90039 15.7139 6.28627 15.7139 6.75198Z" fill="#CC0066"/>
<path d="M20.0649 19.7329H12.1211C11.4159 19.7329 10.8438 19.1608 10.8438 18.4555V5.502C10.8438 4.79677 11.4159 4.22461 12.1211 4.22461H20.0649C27.6029 4.22461 28.7272 9.0747 28.7272 11.9621C28.7272 16.9719 25.6468 19.7329 20.0649 19.7329ZM12.1211 4.65041C11.6488 4.65041 11.2695 5.02963 11.2695 5.502V18.4555C11.2695 18.9279 11.6488 19.3071 12.1211 19.3071H20.0649C25.3741 19.3071 28.3014 16.6991 28.3014 11.9621C28.3014 5.6018 23.1386 4.65041 20.0649 4.65041H12.1211V4.65041Z" fill="black"/>
<path d="M17.444 10.4383C17.6169 10.4383 17.7766 10.4649 17.9296 10.5181C18.0826 10.5714 18.2091 10.6578 18.3222 10.7643C18.4286 10.8774 18.5151 11.0171 18.5816 11.1768C18.6415 11.3431 18.6748 11.5361 18.6748 11.7623C18.6748 11.9618 18.6482 12.1415 18.6016 12.3078C18.5484 12.4741 18.4752 12.6205 18.3754 12.7403C18.2756 12.86 18.1492 12.9532 17.9962 13.0263C17.8431 13.0929 17.6635 13.1328 17.4573 13.1328H16.293V10.4316H17.444V10.4383ZM17.404 12.6405C17.4905 12.6405 17.5704 12.6272 17.6569 12.6005C17.7367 12.5739 17.8099 12.5274 17.8698 12.4608C17.9296 12.3943 17.9829 12.3145 18.0228 12.208C18.0627 12.1016 18.0827 11.9818 18.0827 11.8288C18.0827 11.6957 18.0693 11.5693 18.0427 11.4629C18.0161 11.3564 17.9695 11.2566 17.9097 11.1834C17.8498 11.1103 17.77 11.0437 17.6702 11.0038C17.5704 10.9639 17.4506 10.9439 17.3042 10.9439H16.8784V12.6471H17.404V12.6405Z" fill="white"/>
<path d="M21.0764 10.4383V10.9373H19.6527V11.5161H20.9633V11.9752H19.6527V12.6338H21.1097V13.1328H19.0605V10.4316H21.0764V10.4383Z" fill="white"/>
<path d="M23.1122 10.4385L24.1235 13.1396H23.5048L23.2985 12.5408H22.2873L22.0744 13.1396H21.4756L22.4935 10.4385H23.1122V10.4385ZM23.1455 12.0951L22.8062 11.1038H22.7995L22.4469 12.0951H23.1455Z" fill="white"/>
<path d="M25.0882 10.4385V12.6406H26.4055V13.1396H24.4961V10.4385H25.0882V10.4385Z" fill="white"/>
<path d="M13.4912 13.0332C14.1783 13.0332 14.7353 12.4762 14.7353 11.789C14.7353 11.1019 14.1783 10.5449 13.4912 10.5449C12.8041 10.5449 12.2471 11.1019 12.2471 11.789C12.2471 12.4762 12.8041 13.0332 13.4912 13.0332Z" fill="black"/>
<path d="M14.4297 18.0489C13.3852 18.0489 12.5469 17.2039 12.5469 16.166V14.6957C12.5469 14.1768 12.966 13.751 13.4916 13.751C14.0106 13.751 14.4364 14.1701 14.4364 14.6957V18.0489H14.4297Z" fill="black"/>
</g>
<rect x="1.09961" y="0.5" width="37.4" height="23" rx="1.5" stroke="#DDDDDD"/>
<defs>
<clipPath id="clip0_1603_32481">
<rect width="20.3651" height="17.95" fill="white" transform="translate(9.59961 3)"/>
</clipPath>
</defs>
</svg>
