<svg width="39" height="24" viewBox="0 0 39 24" fill="none" xmlns="http://www.w3.org/2000/svg">
<rect x="0.5" y="0.5" width="37.4" height="23" rx="1.5" fill="#EF809F"/>
<path d="M17.4101 14.7421C17.6759 15.0029 17.6809 15.4292 17.4201 15.695L17.3699 15.7502C17.1091 16.016 16.6828 16.021 16.417 15.7602L14.9123 14.2706C14.496 13.8543 14.4409 13.3427 14.7017 13.0719L14.7518 13.0167C14.9675 12.791 15.3236 12.771 15.5694 12.9615C15.6847 13.0518 15.8552 13.0318 15.9505 12.9164C16.0408 12.801 16.0208 12.6305 15.9054 12.5352C15.439 12.1691 14.7719 12.2142 14.3606 12.6355L14.3105 12.6907C13.8239 13.1923 13.9192 14.0399 14.5261 14.6468L16.0358 16.1514C16.5223 16.6179 17.2897 16.6078 17.7611 16.1264L17.8163 16.0712C18.2777 15.5897 18.2677 14.8273 17.7912 14.3559C17.6859 14.2505 17.5154 14.2505 17.4101 14.3609C17.2997 14.4662 17.2997 14.6367 17.4101 14.7421ZM16.5073 6.66202L17.1242 11.7277C17.1392 11.8732 17.2746 11.9835 17.4251 11.9634C17.5706 11.9484 17.6809 11.813 17.6608 11.6625L17.0439 6.57676L17.0389 6.54666C16.9336 6.12536 17.1944 5.6539 17.5455 5.57866C17.7411 5.53854 17.9467 5.57365 18.1122 5.68399C18.2777 5.79433 18.3931 5.96486 18.4332 6.16047L19.5066 10.7447C19.5417 10.8901 19.6871 10.9804 19.8326 10.9453C19.978 10.9102 20.0683 10.7647 20.0332 10.6193L18.9649 6.05012C18.8997 5.7191 18.6991 5.42318 18.4132 5.23259C18.1273 5.042 17.7712 4.9768 17.4351 5.04702C16.7731 5.18745 16.3417 5.95984 16.5073 6.66202Z" fill="white"/>
<path d="M22.1646 12.6102L23.3834 6.54139C23.5238 5.88937 23.1376 5.23233 22.4906 5.04174C21.7684 4.86118 21.0411 5.28249 20.8555 5.99469L19.5063 10.614C19.4662 10.7595 19.5465 10.9099 19.6919 10.9501C19.8374 10.9902 19.9878 10.9099 20.028 10.7645L21.3771 6.14015C21.4925 5.71382 21.9238 5.45803 22.3451 5.56336C22.7063 5.6737 22.932 6.04987 22.8517 6.43105L21.6329 12.5049C21.6028 12.6503 21.6981 12.7958 21.8436 12.8259C21.9941 12.8509 22.1395 12.7556 22.1646 12.6102ZM19.1001 18.4583C17.1691 18.4583 15.5591 17.0439 15.5591 15.0327C15.5591 14.8822 15.4387 14.7619 15.2883 14.7619C15.1378 14.7619 15.0174 14.8822 15.0174 15.0327C15.0174 17.3599 16.8882 19 19.1001 19C19.2506 19 19.3709 18.8796 19.3709 18.7292C19.3709 18.5787 19.2506 18.4583 19.1001 18.4583ZM18.1471 13.7287C18.107 13.8791 18.0117 14.0145 17.8813 14.0998L17.8211 14.1349C17.5102 14.3456 17.0889 14.2653 16.8782 13.9544L15.6945 12.1939C15.3735 11.7024 15.4137 11.1908 15.7246 10.9751L15.7798 10.935C16.181 10.7043 16.5171 10.8798 16.8632 11.3864L17.8512 12.861C17.9365 12.9864 18.102 13.0165 18.2274 12.9362C18.3528 12.856 18.3829 12.6854 18.3026 12.56L17.3146 11.0855C16.823 10.3733 16.2212 10.0573 15.4939 10.4786L15.4187 10.5287C14.8369 10.925 14.7667 11.7776 15.2431 12.4948L16.4268 14.2603C16.808 14.817 17.5603 14.9625 18.117 14.5863L18.1772 14.5462C18.413 14.3857 18.5835 14.145 18.6637 13.8691C18.7039 13.7236 18.6186 13.5782 18.4731 13.5381C18.3327 13.4979 18.1873 13.5832 18.1471 13.7287Z" fill="white"/>
<path d="M19.938 14.621C19.3763 14.937 19.0252 15.5238 18.9851 16.4216C18.975 16.5721 19.0904 16.6975 19.2409 16.7075C19.3913 16.7125 19.5167 16.6022 19.5268 16.4517C19.5669 15.6392 19.8829 15.2028 20.3894 15.0122C20.6603 14.9119 20.9562 14.8919 21.217 14.9169L21.2822 14.927C21.6283 14.9922 21.7386 14.4756 21.3925 14.3953L19.3111 13.9289C18.3381 13.6631 18.1876 13.3019 18.3682 12.7001C18.4484 12.4393 18.6039 12.3038 18.8497 12.2487C19.0102 12.2136 19.1857 12.2186 19.3562 12.2487C19.4064 12.2587 19.4415 12.2637 19.4565 12.2687L22.6163 13.006L22.6765 13.0261C22.7267 13.0461 22.7818 13.0863 22.837 13.1414C23.0477 13.3671 23.168 13.7935 23.1079 14.4956C22.9022 16.9533 21.7587 18.478 19.0402 18.4529C18.8898 18.4529 18.7694 18.5733 18.7694 18.7187C18.7694 18.8692 18.8898 18.9896 19.0352 18.9896C22.0847 19.0146 23.4188 17.2442 23.6445 14.5358C23.7147 13.6932 23.5593 13.1164 23.2332 12.7703C23.0527 12.5797 22.8621 12.4894 22.7166 12.4694L19.592 11.7421C19.5719 11.7371 19.5217 11.722 19.4515 11.712C19.2158 11.6719 18.97 11.6669 18.7293 11.717C18.308 11.8123 17.987 12.0781 17.8516 12.5396C17.5908 13.4073 17.8666 14.0894 19.1807 14.4455L19.938 14.621Z" fill="white"/>
<rect x="0.5" y="0.5" width="37.4" height="23" rx="1.5" stroke="#DDDDDD"/>
</svg>
